<?xml version="1.0" encoding="UTF-8" standalone="no"?>
<!-- Created with Inkscape (http://www.inkscape.org/) -->

<svg
   xmlns:dc="http://purl.org/dc/elements/1.1/"
   xmlns:cc="http://creativecommons.org/ns#"
   xmlns:rdf="http://www.w3.org/1999/02/22-rdf-syntax-ns#"
   xmlns:svg="http://www.w3.org/2000/svg"
   xmlns="http://www.w3.org/2000/svg"
   xmlns:sodipodi="http://sodipodi.sourceforge.net/DTD/sodipodi-0.dtd"
   xmlns:inkscape="http://www.inkscape.org/namespaces/inkscape"
   width="16px"
   height="16px"
   viewBox="0 0 16 16"
   version="1.1"
   id="SVGRoot"
   inkscape:version="0.92.4 (5da689c313, 2019-01-14)"
   sodipodi:docname="comments.svg">
  <defs
     id="defs10">
    <symbol
       id="CircleBalloon"
       style="stroke-linejoin:miter;stroke-miterlimit:10">
      <title
         id="title134">Circle Balloon</title>
      <ellipse
         cx="205"
         cy="125"
         rx="125"
         ry="70"
         style="stroke:none"
         id="ellipse136" />
      <path
         d="m 110,166 c 11,21 -10,30 -22,43 32,-3 59,-7 70,-26"
         style="stroke:none"
         id="path138" />
      <ellipse
         cx="200"
         cy="120"
         rx="125"
         ry="70"
         style="fill:#eeeeee;stroke-width:3.5"
         id="ellipse140" />
      <path
         d="m 106,162 c 11,21 -10,30 -22,43 32,-3 59,-7 70,-26"
         style="fill:#eeeeee;stroke-width:3.5"
         id="path142" />
      <ellipse
         cx="197"
         cy="117"
         rx="117"
         ry="63"
         style="fill:white;stroke:none"
         id="ellipse144" />
      <path
         d="m 103,149 c 14,25 9,34 -6,47 30,-3 50,-10 58,-31"
         style="fill:white;stroke:none"
         id="path146" />
    </symbol>
  </defs>
  <sodipodi:namedview
     id="base"
     pagecolor="#ffffff"
     bordercolor="#666666"
     borderopacity="1.0"
     inkscape:pageopacity="0.0"
     inkscape:pageshadow="2"
     inkscape:zoom="16"
     inkscape:cx="-1.7359015"
     inkscape:cy="15.45646"
     inkscape:document-units="px"
     inkscape:current-layer="layer1"
     showgrid="false"
     inkscape:window-width="1366"
     inkscape:window-height="703"
     inkscape:window-x="0"
     inkscape:window-y="0"
     inkscape:window-maximized="1"
     inkscape:grid-bbox="true" />
  <metadata
     id="metadata13">
    <rdf:RDF>
      <cc:Work
         rdf:about="">
        <dc:format>image/svg+xml</dc:format>
        <dc:type
           rdf:resource="http://purl.org/dc/dcmitype/StillImage" />
        <dc:title></dc:title>
      </cc:Work>
    </rdf:RDF>
  </metadata>
  <g
     inkscape:label="Vrstva 1"
     inkscape:groupmode="layer"
     id="layer1">
    <path
       style="fill:#70b7cf;fill-opacity:1;stroke:#70b7cf;stroke-width:1px;stroke-linecap:butt;stroke-linejoin:miter;stroke-opacity:1"
       d="m 8.25,10.6875 4.78125,2.96875 c -0.596305,-1.624187 -1.2428,-1.823186 -2.14971,-3.136768 z"
       id="path8642"
       inkscape:connector-curvature="0"
       sodipodi:nodetypes="cccc" />
    <path
       style="opacity:1;fill:#70b7cf;fill-opacity:1;stroke:#70b7cf;stroke-width:0.60094488;stroke-miterlimit:4;stroke-dasharray:none;stroke-dashoffset:0;stroke-opacity:1"
       d="M 1.0625 3.125 C 0.7855 3.125 0.5625 3.348 0.5625 3.625 L 0.5625 10.625 C 0.5625 10.902 0.7855 11.125 1.0625 11.125 L 14.8125 11.125 C 15.0895 11.125 15.3125 10.902 15.3125 10.625 L 15.3125 3.625 C 15.3125 3.348 15.0895 3.125 14.8125 3.125 L 1.0625 3.125 z M 3.46875 5.4375 A 1.28125 1.28125 0 0 1 4.75 6.71875 A 1.28125 1.28125 0 0 1 3.46875 8 A 1.28125 1.28125 0 0 1 2.1875 6.71875 A 1.28125 1.28125 0 0 1 3.46875 5.4375 z M 7.625 5.59375 A 1.28125 1.28125 0 0 1 8.90625 6.875 A 1.28125 1.28125 0 0 1 7.625 8.15625 A 1.28125 1.28125 0 0 1 6.34375 6.875 A 1.28125 1.28125 0 0 1 7.625 5.59375 z M 11.875 5.59375 A 1.28125 1.28125 0 0 1 13.15625 6.875 A 1.28125 1.28125 0 0 1 11.875 8.15625 A 1.28125 1.28125 0 0 1 10.59375 6.875 A 1.28125 1.28125 0 0 1 11.875 5.59375 z "
       id="rect8640" />
  </g>
</svg>
