<?xml version="1.0" encoding="UTF-8" standalone="no"?>
<!-- Created with Inkscape (http://www.inkscape.org/) -->

<svg
   xmlns:dc="http://purl.org/dc/elements/1.1/"
   xmlns:cc="http://creativecommons.org/ns#"
   xmlns:rdf="http://www.w3.org/1999/02/22-rdf-syntax-ns#"
   xmlns:svg="http://www.w3.org/2000/svg"
   xmlns="http://www.w3.org/2000/svg"
   xmlns:sodipodi="http://sodipodi.sourceforge.net/DTD/sodipodi-0.dtd"
   xmlns:inkscape="http://www.inkscape.org/namespaces/inkscape"
   width="16"
   height="16"
   id="svg3352"
   version="1.1"
   inkscape:version="0.92.3 (2405546, 2018-03-11)"
   viewBox="0 0 16 16"
   sodipodi:docname="settings.svg">
  <defs
     id="defs3354" />
  <sodipodi:namedview
     id="base"
     pagecolor="#ffffff"
     bordercolor="#666666"
     borderopacity="1.0"
     inkscape:pageopacity="0.0"
     inkscape:pageshadow="2"
     inkscape:zoom="31.392433"
     inkscape:cx="8.5159304"
     inkscape:cy="7.6732911"
     inkscape:current-layer="layer2"
     showgrid="true"
     inkscape:grid-bbox="true"
     inkscape:document-units="px"
     inkscape:window-width="1366"
     inkscape:window-height="719"
     inkscape:window-x="0"
     inkscape:window-y="0"
     inkscape:window-maximized="1" />
  <metadata
     id="metadata3357">
    <rdf:RDF>
      <cc:Work
         rdf:about="">
        <dc:format>image/svg+xml</dc:format>
        <dc:type
           rdf:resource="http://purl.org/dc/dcmitype/StillImage" />
        <dc:title />
      </cc:Work>
    </rdf:RDF>
  </metadata>
  <g
     id="layer1"
     inkscape:label="Layer 1"
     inkscape:groupmode="layer" />
  <g
     inkscape:groupmode="layer"
     id="layer2"
     inkscape:label="Layer 2">
    <path
       style="fill:#70b7cf;fill-rule:evenodd;stroke:none;stroke-width:0.2;stroke-linecap:butt;stroke-linejoin:miter;stroke-opacity:1;stroke-miterlimit:4;stroke-dasharray:none;fill-opacity:0.99607843"
       d="M 6.5996094 1.4042969 L 4.4589844 2.3496094 L 4.4589844 4.3554688 L 2.3867188 4.4902344 L 1.53125 6.5390625 L 2.9511719 8.09375 L 1.5097656 9.6035156 L 2.4101562 11.675781 L 4.4824219 11.787109 L 4.4589844 13.769531 L 6.6230469 14.693359 L 8.0859375 13.207031 L 9.640625 14.693359 L 11.736328 13.769531 L 11.802734 11.720703 L 13.898438 11.652344 L 14.730469 9.5585938 L 13.3125 8.0703125 L 14.730469 6.5390625 L 13.898438 4.4902344 L 11.757812 4.421875 L 11.736328 2.3046875 L 9.6171875 1.4492188 L 8.1308594 2.8457031 L 6.5996094 1.4042969 z M 8.1074219 4.8515625 A 3.2332633 3.2332633 0 0 1 11.339844 8.0839844 A 3.2332633 3.2332633 0 0 1 8.1074219 11.316406 A 3.2332633 3.2332633 0 0 1 4.8730469 8.0839844 A 3.2332633 3.2332633 0 0 1 8.1074219 4.8515625 z "
       id="path10680" />
  </g>
</svg>
