<?xml version="1.0" encoding="UTF-8" standalone="no"?>
<!-- Created with Inkscape (http://www.inkscape.org/) -->

<svg
   xmlns:dc="http://purl.org/dc/elements/1.1/"
   xmlns:cc="http://creativecommons.org/ns#"
   xmlns:rdf="http://www.w3.org/1999/02/22-rdf-syntax-ns#"
   xmlns:svg="http://www.w3.org/2000/svg"
   xmlns="http://www.w3.org/2000/svg"
   xmlns:sodipodi="http://sodipodi.sourceforge.net/DTD/sodipodi-0.dtd"
   xmlns:inkscape="http://www.inkscape.org/namespaces/inkscape"
   width="16px"
   height="16px"
   viewBox="0 0 16 16"
   version="1.1"
   id="SVGRoot"
   inkscape:version="0.92.4 (5da689c313, 2019-01-14)"
   sodipodi:docname="clown.svg">
  <defs
     id="defs1955" />
  <sodipodi:namedview
     id="base"
     pagecolor="#ffffff"
     bordercolor="#666666"
     borderopacity="1.0"
     inkscape:pageopacity="0.0"
     inkscape:pageshadow="2"
     inkscape:zoom="16"
     inkscape:cx="10.251046"
     inkscape:cy="9.9217962"
     inkscape:document-units="px"
     inkscape:current-layer="layer1"
     showgrid="false"
     inkscape:window-width="1366"
     inkscape:window-height="703"
     inkscape:window-x="0"
     inkscape:window-y="0"
     inkscape:window-maximized="1"
     inkscape:grid-bbox="true" />
  <metadata
     id="metadata1958">
    <rdf:RDF>
      <cc:Work
         rdf:about="">
        <dc:format>image/svg+xml</dc:format>
        <dc:type
           rdf:resource="http://purl.org/dc/dcmitype/StillImage" />
        <dc:title></dc:title>
      </cc:Work>
    </rdf:RDF>
  </metadata>
  <g
     inkscape:label="Vrstva 1"
     inkscape:groupmode="layer"
     id="layer1">
    <path
       inkscape:connector-curvature="0"
       id="path174"
       style="fill:#eae9e8;fill-opacity:1;fill-rule:nonzero;stroke:none;stroke-width:0.02767857"
       d="m 15.875,7.9374999 c 0,4.2802141 -3.469786,7.7500001 -7.75,7.7500001 -4.280215,0 -7.75,-3.469786 -7.75,-7.7500001 C 0.375,3.657286 3.844785,0.1875 8.125,0.1875 c 4.280214,0 7.75,3.469786 7.75,7.7499999" />
    <path
       inkscape:connector-curvature="0"
       id="path238"
       style="fill:#cfcecd;fill-opacity:1;fill-rule:nonzero;stroke:none;stroke-width:0.02767857"
       d="m 13.023,1.932357 c 1.090259,1.334938 1.744857,3.039937 1.744857,4.8979999 0,4.2802141 -3.469786,7.7500001 -7.75,7.7500001 -1.858063,0 -3.563062,-0.654598 -4.898,-1.744857 1.421018,1.740428 3.582991,2.852 6.005143,2.852 4.280214,0 7.75,-3.469786 7.75,-7.7500001 0,-2.4221518 -1.111572,-4.5841249 -2.852,-6.0051429" />
    <path
       inkscape:connector-curvature="0"
       id="path398"
       style="fill:#f04035;fill-opacity:1;fill-rule:nonzero;stroke:none;stroke-width:0.02767857"
       d="m 13.206786,7.9374999 c -0.868277,0 -1.683134,0.4932322 -2.021366,1.2928661 -0.504304,1.192116 -1.684518,2.028563 -3.06042,2.028563 -1.375902,0 -2.556116,-0.836447 -3.06042,-2.028563 C 4.726348,8.4307321 3.911491,7.9374999 3.043214,7.9374999 v 0 c -1.604527,0 -2.661294,1.6513037 -2.014446,3.1199291 1.200419,2.726616 3.925928,4.630071 7.096232,4.630071 3.170304,0 5.895812,-1.903455 7.096232,-4.630071 0.646848,-1.4686254 -0.40992,-3.1199291 -2.014446,-3.1199291 v 0" />
    <path
       inkscape:connector-curvature="0"
       id="path468"
       style="fill:#f04035;fill-opacity:1;fill-rule:nonzero;stroke:none;stroke-width:0.02767857"
       d="m 9.508929,8.7678571 c 0,0.7642055 -0.619724,1.3839289 -1.383929,1.3839289 -0.764205,0 -1.383929,-0.6197234 -1.383929,-1.3839289 0,-0.7642053 0.619724,-1.3839287 1.383929,-1.3839287 0.764205,0 1.383929,0.6197234 1.383929,1.3839287" />
    <path
       inkscape:connector-curvature="0"
       id="path470"
       style="fill:#f6837f;fill-opacity:1;fill-rule:nonzero;stroke:none;stroke-width:0.02767857"
       d="m 8.401786,8.4910714 c 0,0.3058482 -0.247724,0.5535715 -0.553572,0.5535715 -0.305848,0 -0.553571,-0.2477233 -0.553571,-0.5535715 0,-0.3058481 0.247723,-0.5535715 0.553571,-0.5535715 0.305848,0 0.553572,0.2477234 0.553572,0.5535715" />
    <path
       inkscape:connector-curvature="0"
       id="path472"
       style="fill:#323131;fill-opacity:1;fill-rule:nonzero;stroke:none;stroke-width:0.02767857"
       d="m 13.107143,7.1071427 h -0.553572 c 0,-0.6105894 -0.496553,-1.107143 -1.107142,-1.107143 -0.61059,0 -1.107143,0.4965536 -1.107143,1.107143 H 9.785714 c 0,-0.9158839 0.744831,-1.6607143 1.660715,-1.6607143 0.915883,0 1.660714,0.7448304 1.660714,1.6607143" />
    <path
       inkscape:connector-curvature="0"
       id="path474"
       style="fill:#323131;fill-opacity:1;fill-rule:nonzero;stroke:none;stroke-width:0.02767857"
       d="M 6.464285,7.1071427 H 5.910714 c 0,-0.6105894 -0.496553,-1.107143 -1.107143,-1.107143 -0.610589,0 -1.107142,0.4965536 -1.107142,1.107143 H 3.142857 c 0,-0.9158839 0.74483,-1.6607143 1.660714,-1.6607143 0.915884,0 1.660714,0.7448304 1.660714,1.6607143" />
    <path
       inkscape:connector-curvature="0"
       id="path936"
       style="fill:#323131;fill-opacity:1;fill-rule:nonzero;stroke:none;stroke-width:0.02767857"
       d="m 8.125,13.75 c -2.308947,0 -4.399509,-1.368705 -5.325634,-3.4875 -0.06117,-0.139777 0.0028,-0.3030804 0.142821,-0.3642501 0.139777,-0.06117 0.303081,0.00249 0.36425,0.1428211 0.838384,1.916742 2.729661,3.155358 4.818563,3.155358 2.088902,0 3.980178,-1.238616 4.818562,-3.155358 0.06117,-0.1403301 0.224197,-0.2039906 0.36425,-0.1428211 0.140054,0.06117 0.203992,0.2244731 0.142822,0.3642501 C 12.524509,12.381295 10.433946,13.75 8.125,13.75" />
    <path
       inkscape:connector-curvature="0"
       id="path1192"
       style="fill:#82c0b6;fill-opacity:1;fill-rule:nonzero;stroke:none;stroke-width:0.02767857"
       d="m 15.875,2.401786 c 0,1.222839 -0.991446,2.214285 -2.214286,2.214285 -1.222839,0 -2.214285,-0.991446 -2.214285,-2.214285 0,-1.22284 0.991446,-2.214286 2.214285,-2.214286 1.22284,0 2.214286,0.991446 2.214286,2.214286" />
    <path
       inkscape:connector-curvature="0"
       id="path1194"
       style="fill:#63ada5;fill-opacity:1;fill-rule:nonzero;stroke:none;stroke-width:0.02767857"
       d="m 14.924241,0.584687 c 0.249661,0.358438 0.397187,0.793545 0.397187,1.263527 0,1.222839 -0.991446,2.214286 -2.214285,2.214286 -0.469982,0 -0.905089,-0.147527 -1.263527,-0.397187 0.399955,0.57433 1.064241,0.950758 1.817098,0.950758 1.222839,0 2.214286,-0.991446 2.214286,-2.214285 0,-0.752858 -0.376428,-1.417143 -0.950759,-1.817099" />
    <path
       inkscape:connector-curvature="0"
       id="path1196"
       style="fill:#82c0b6;fill-opacity:1;fill-rule:nonzero;stroke:none;stroke-width:0.02767857"
       d="m 4.803571,2.401786 c 0,1.222839 -0.991446,2.214285 -2.214285,2.214285 C 1.366446,4.616071 0.375,3.624625 0.375,2.401786 0.375,1.178946 1.366446,0.1875 2.589286,0.1875 c 1.222839,0 2.214285,0.991446 2.214285,2.214286" />
    <path
       inkscape:connector-curvature="0"
       id="path1260"
       style="fill:#63ada5;fill-opacity:1;fill-rule:nonzero;stroke:none;stroke-width:0.02767857"
       d="M 3.852812,0.584687 C 4.102473,0.943125 4.25,1.378232 4.25,1.848214 4.25,3.071053 3.258553,4.0625 2.035714,4.0625 c -0.469982,0 -0.905089,-0.147527 -1.263527,-0.397187 0.399956,0.57433 1.064241,0.950758 1.817099,0.950758 1.222839,0 2.214285,-0.991446 2.214285,-2.214285 0,-0.752858 -0.376428,-1.417143 -0.950759,-1.817099" />
  </g>
</svg>
