<?xml version="1.0" encoding="UTF-8" standalone="no"?>
<!-- Created with Inkscape (http://www.inkscape.org/) -->

<svg
   xmlns:dc="http://purl.org/dc/elements/1.1/"
   xmlns:cc="http://creativecommons.org/ns#"
   xmlns:rdf="http://www.w3.org/1999/02/22-rdf-syntax-ns#"
   xmlns:svg="http://www.w3.org/2000/svg"
   xmlns="http://www.w3.org/2000/svg"
   xmlns:sodipodi="http://sodipodi.sourceforge.net/DTD/sodipodi-0.dtd"
   xmlns:inkscape="http://www.inkscape.org/namespaces/inkscape"
   width="16px"
   height="16px"
   viewBox="0 0 16 16"
   version="1.1"
   id="SVGRoot"
   inkscape:version="0.92.4 (5da689c313, 2019-01-14)"
   sodipodi:docname="dvl_smile.svg">
  <defs
     id="defs1955" />
  <sodipodi:namedview
     id="base"
     pagecolor="#ffffff"
     bordercolor="#666666"
     borderopacity="1.0"
     inkscape:pageopacity="0.0"
     inkscape:pageshadow="2"
     inkscape:zoom="16"
     inkscape:cx="10.251046"
     inkscape:cy="9.9217962"
     inkscape:document-units="px"
     inkscape:current-layer="layer1"
     showgrid="false"
     inkscape:window-width="1366"
     inkscape:window-height="703"
     inkscape:window-x="0"
     inkscape:window-y="0"
     inkscape:window-maximized="1"
     inkscape:grid-bbox="true" />
  <metadata
     id="metadata1958">
    <rdf:RDF>
      <cc:Work
         rdf:about="">
        <dc:format>image/svg+xml</dc:format>
        <dc:type
           rdf:resource="http://purl.org/dc/dcmitype/StillImage" />
        <dc:title></dc:title>
      </cc:Work>
    </rdf:RDF>
  </metadata>
  <g
     inkscape:label="Vrstva 1"
     inkscape:groupmode="layer"
     id="layer1">
    <path
       inkscape:connector-curvature="0"
       id="path32"
       style="fill:#f04035;fill-opacity:1;fill-rule:nonzero;stroke:none;stroke-width:0.02767857"
       d="M 15.75,8.1249997 C 15.75,12.405214 12.280214,15.875 8,15.875 3.719785,15.875 0.25,12.405214 0.25,8.1249997 0.25,3.844786 3.719785,0.375 8,0.375 c 4.280214,0 7.75,3.469786 7.75,7.7499997" />
    <path
       inkscape:connector-curvature="0"
       id="path212"
       style="fill:#e1382c;fill-opacity:1;fill-rule:nonzero;stroke:none;stroke-width:0.02767857"
       d="m 12.898,2.119857 c 1.090259,1.334938 1.744857,3.039937 1.744857,4.8979999 0,4.2802141 -3.469786,7.7500001 -7.75,7.7500001 -1.858062,0 -3.563062,-0.654598 -4.898,-1.744857 1.421018,1.740428 3.582991,2.852 6.005143,2.852 4.280214,0 7.75,-3.469786 7.75,-7.7500003 0,-2.4221516 -1.111572,-4.5841247 -2.852,-6.0051427" />
    <path
       inkscape:connector-curvature="0"
       id="path1120"
       style="fill:#323131;fill-opacity:1;fill-rule:nonzero;stroke:none;stroke-width:0.02767857"
       d="m 12.705357,7.0375087 c 0,0.6114198 -0.495723,1.1071431 -1.107143,1.1071431 -0.611419,0 -1.107143,-0.4957235 -1.107143,-1.1071431 0,-0.6114196 0.495724,-1.1071426 1.107143,-1.1071426 0.61142,0 1.107143,0.495723 1.107143,1.1071426" />
    <path
       inkscape:connector-curvature="0"
       id="path1122"
       style="fill:#323131;fill-opacity:1;fill-rule:nonzero;stroke:none;stroke-width:0.02767857"
       d="m 11.206839,6.646134 -0.391375,-0.3913751 1.37009,-1.3700899 0.391375,0.391376 -1.37009,1.3700888" />
    <path
       inkscape:connector-curvature="0"
       id="path1124"
       style="fill:#323131;fill-opacity:1;fill-rule:nonzero;stroke:none;stroke-width:0.02767857"
       d="m 3.294643,7.0375087 c 0,0.6114198 0.495723,1.1071431 1.107143,1.1071431 0.611419,0 1.107142,-0.4957235 1.107142,-1.1071431 0,-0.6114196 -0.495723,-1.1071426 -1.107142,-1.1071426 -0.61142,0 -1.107143,0.495723 -1.107143,1.1071426" />
    <path
       inkscape:connector-curvature="0"
       id="path1126"
       style="fill:#323131;fill-opacity:1;fill-rule:nonzero;stroke:none;stroke-width:0.02767857"
       d="M 4.79316,6.646134 3.423071,5.276045 3.814446,4.884669 5.184535,6.2547586 4.79316,6.6461338" />
    <path
       inkscape:connector-curvature="0"
       id="path1128"
       style="fill:#323131;fill-opacity:1;fill-rule:nonzero;stroke:none;stroke-width:0.02767857"
       d="m 8.27208,13.661268 c -0.431509,0 -0.857482,-0.113205 -1.241384,-0.334911 C 6.454428,12.993661 6.042295,12.45642 5.870134,11.813723 l 0.534473,-0.143098 c 0.133964,0.499875 0.454759,0.917545 0.902875,1.176616 0.448393,0.258795 0.970688,0.327714 1.470286,0.193473 0.499875,-0.133964 0.917545,-0.454759 1.176616,-0.902875 0.258518,-0.448116 0.327437,-0.97041 0.193473,-1.470285 l 0.534473,-0.143375 c 0.35567,1.32691 -0.434553,2.695616 -1.761464,3.051008 -0.214509,0.05757 -0.432339,0.08608 -0.648786,0.08608" />
    <path
       inkscape:connector-curvature="0"
       id="path1242"
       style="fill:#57585a;fill-opacity:1;fill-rule:nonzero;stroke:none;stroke-width:0.02767857"
       d="m 14.206366,0.375 c -2.7e-4,0 0,0 -2.7e-4,0 -0.295054,0.59758 -0.850839,1.233357 -1.595116,1.794125 -0.438982,0.330482 -0.575714,0.928062 -0.301143,1.403857 l 0.03404,0.05896 c 0.410751,0.711339 1.438733,0.715767 1.853634,0.0069 0.569619,-0.973731 0.614458,-2.217329 0.0088,-3.263856" />
    <path
       inkscape:connector-curvature="0"
       id="path1244"
       style="fill:#57585a;fill-opacity:1;fill-rule:nonzero;stroke:none;stroke-width:0.02767857"
       d="m 1.793911,0.375 c -2.7e-4,0 0,0 -2.7e-4,0 -0.605608,1.046527 -0.560769,2.290125 0.0089,3.263857 0.414902,0.708848 1.442884,0.70442 1.853634,-0.0069 l 0.03404,-0.05895 C 3.964787,3.097212 3.828054,2.499632 3.389072,2.16915 2.644796,1.608382 2.08901,0.972605 1.793957,0.375025" />
  </g>
</svg>
