<?xml version="1.0" encoding="UTF-8" standalone="no"?>
<!-- Created with Inkscape (http://www.inkscape.org/) -->

<svg
   xmlns:dc="http://purl.org/dc/elements/1.1/"
   xmlns:cc="http://creativecommons.org/ns#"
   xmlns:rdf="http://www.w3.org/1999/02/22-rdf-syntax-ns#"
   xmlns:svg="http://www.w3.org/2000/svg"
   xmlns="http://www.w3.org/2000/svg"
   xmlns:sodipodi="http://sodipodi.sourceforge.net/DTD/sodipodi-0.dtd"
   xmlns:inkscape="http://www.inkscape.org/namespaces/inkscape"
   width="16px"
   height="16px"
   viewBox="0 0 16 16"
   version="1.1"
   id="SVGRoot"
   inkscape:version="0.92.4 (5da689c313, 2019-01-14)"
   sodipodi:docname="flirt.svg">
  <defs
     id="defs1955" />
  <sodipodi:namedview
     id="base"
     pagecolor="#ffffff"
     bordercolor="#666666"
     borderopacity="1.0"
     inkscape:pageopacity="0.0"
     inkscape:pageshadow="2"
     inkscape:zoom="16"
     inkscape:cx="8.0726303"
     inkscape:cy="5.1256473"
     inkscape:document-units="px"
     inkscape:current-layer="layer1"
     showgrid="false"
     inkscape:window-width="1366"
     inkscape:window-height="703"
     inkscape:window-x="0"
     inkscape:window-y="0"
     inkscape:window-maximized="1"
     inkscape:grid-bbox="true" />
  <metadata
     id="metadata1958">
    <rdf:RDF>
      <cc:Work
         rdf:about="">
        <dc:format>image/svg+xml</dc:format>
        <dc:type
           rdf:resource="http://purl.org/dc/dcmitype/StillImage" />
        <dc:title></dc:title>
      </cc:Work>
    </rdf:RDF>
  </metadata>
  <g
     inkscape:label="Vrstva 1"
     inkscape:groupmode="layer"
     id="layer1">
    <path
       inkscape:connector-curvature="0"
       id="path88"
       style="fill:#fae131;fill-opacity:1;fill-rule:nonzero;stroke:none;stroke-width:0.02767857"
       d="m 15.854168,8.0624999 c 0,4.2802141 -3.469786,7.7500001 -7.75,7.7500001 -4.280214,0 -7.75,-3.469786 -7.75,-7.7500001 0,-4.2802149 3.469786,-7.7499999 7.75,-7.7499999 4.280214,0 7.75,3.469785 7.75,7.7499999" />
    <path
       inkscape:connector-curvature="0"
       id="path182"
       style="fill:#f8d532;fill-opacity:1;fill-rule:nonzero;stroke:none;stroke-width:0.02767857"
       d="m 13.002168,2.057357 c 1.090259,1.334938 1.744857,3.039937 1.744857,4.8979999 0,4.2802141 -3.469786,7.7500001 -7.75,7.7500001 -1.858062,0 -3.563062,-0.654598 -4.898,-1.744857 1.421018,1.740428 3.582991,2.852 6.005143,2.852 4.280214,0 7.75,-3.469786 7.75,-7.7500001 0,-2.4221518 -1.111572,-4.5841249 -2.852,-6.0051429" />
    <path
       inkscape:connector-curvature="0"
       id="path512"
       style="fill:#323131;fill-opacity:1;fill-rule:nonzero;stroke:none;stroke-width:0.02767857"
       d="m 5.613097,6.9553569 c 0,0.6114198 -0.495724,1.107143 -1.107143,1.107143 -0.61142,0 -1.107143,-0.4957232 -1.107143,-1.107143 0,-0.6114196 0.495723,-1.1071428 1.107143,-1.1071428 0.611419,0 1.107143,0.4957232 1.107143,1.1071428" />
    <path
       inkscape:connector-curvature="0"
       id="path514"
       style="fill:#f04035;fill-opacity:1;fill-rule:nonzero;stroke:none;stroke-width:0.02767857"
       d="m 4.229168,9.9999999 c 0,2.1401071 1.734893,3.8750001 3.875,3.8750001 2.140107,0 3.875,-1.734893 3.875,-3.8750001 h -7.75" />
    <path
       inkscape:connector-curvature="0"
       id="path516"
       style="fill:#f04035;fill-opacity:1;fill-rule:nonzero;stroke:none;stroke-width:0.02767857"
       d="m 4.229168,9.9999999 c 0,2.1401071 1.734893,3.8750001 3.875,3.8750001 2.140107,0 3.875,-1.734893 3.875,-3.8750001 h -7.75" />
    <path
       inkscape:connector-curvature="0"
       id="path518"
       style="fill:#f46f35;fill-opacity:1;fill-rule:nonzero;stroke:none;stroke-width:0.02767857"
       d="m 8.104168,11.383929 c -1.12375,0 -2.132634,0.48133 -2.840652,1.245535 0.708018,0.764206 1.716902,1.245536 2.840652,1.245536 1.12375,0 2.132634,-0.48133 2.840652,-1.245536 -0.708018,-0.764205 -1.716902,-1.245535 -2.840652,-1.245535" />
    <path
       inkscape:connector-curvature="0"
       id="path520"
       style="fill:#323131;fill-opacity:1;fill-rule:nonzero;stroke:none;stroke-width:0.02767857"
       d="m 12.685802,8.3102233 -2.709455,-1.3548664 2.709455,-1.354866 0.247446,0.4954463 -1.719116,0.8594197 1.719116,0.8594198 -0.247446,0.4954466" />
  </g>
</svg>
