<?xml version="1.0" encoding="UTF-8" standalone="no"?>
<!-- Created with Inkscape (http://www.inkscape.org/) -->

<svg
   xmlns:dc="http://purl.org/dc/elements/1.1/"
   xmlns:cc="http://creativecommons.org/ns#"
   xmlns:rdf="http://www.w3.org/1999/02/22-rdf-syntax-ns#"
   xmlns:svg="http://www.w3.org/2000/svg"
   xmlns="http://www.w3.org/2000/svg"
   xmlns:sodipodi="http://sodipodi.sourceforge.net/DTD/sodipodi-0.dtd"
   xmlns:inkscape="http://www.inkscape.org/namespaces/inkscape"
   width="16px"
   height="16px"
   viewBox="0 0 16 16"
   version="1.1"
   id="SVGRoot"
   inkscape:version="0.92.4 (5da689c313, 2019-01-14)"
   sodipodi:docname="happy.svg">
  <defs
     id="defs1955" />
  <sodipodi:namedview
     id="base"
     pagecolor="#ffffff"
     bordercolor="#666666"
     borderopacity="1.0"
     inkscape:pageopacity="0.0"
     inkscape:pageshadow="2"
     inkscape:zoom="8"
     inkscape:cx="10.398047"
     inkscape:cy="5.2201929"
     inkscape:document-units="px"
     inkscape:current-layer="layer1"
     showgrid="false"
     inkscape:window-width="1366"
     inkscape:window-height="703"
     inkscape:window-x="0"
     inkscape:window-y="0"
     inkscape:window-maximized="1"
     inkscape:grid-bbox="true" />
  <metadata
     id="metadata1958">
    <rdf:RDF>
      <cc:Work
         rdf:about="">
        <dc:format>image/svg+xml</dc:format>
        <dc:type
           rdf:resource="http://purl.org/dc/dcmitype/StillImage" />
        <dc:title></dc:title>
      </cc:Work>
    </rdf:RDF>
  </metadata>
  <g
     inkscape:label="Vrstva 1"
     inkscape:groupmode="layer"
     id="layer1">
    <path
       inkscape:connector-curvature="0"
       id="path98"
       style="fill:#fae131;fill-opacity:1;fill-rule:nonzero;stroke:none;stroke-width:0.02730655"
       d="m 15.645833,7.9375 c 0,4.222685 -3.423148,7.645833 -7.6458328,7.645833 -4.2226841,0 -7.6458322,-3.423148 -7.6458322,-7.645833 0,-4.222684 3.4231481,-7.645832 7.6458322,-7.645832 4.2226848,0 7.6458328,3.423148 7.6458328,7.645832" />
    <path
       inkscape:connector-curvature="0"
       id="path186"
       style="fill:#f8d532;fill-opacity:1;fill-rule:nonzero;stroke:none;stroke-width:0.02730655"
       d="m 12.832166,2.013073 c 1.075605,1.316994 1.721405,2.999077 1.721405,4.832166 0,4.222684 -3.423148,7.645832 -7.6458324,7.645832 -1.8330884,0 -3.5151714,-0.6458 -4.832166,-1.721405 1.4019178,1.717036 3.5348318,2.813667 5.9244276,2.813667 4.2226848,0 7.6458328,-3.423148 7.6458328,-7.645833 0,-2.389596 -1.096631,-4.52251 -2.813667,-5.924427" />
    <path
       inkscape:connector-curvature="0"
       id="path566"
       style="fill:#323131;fill-opacity:1;fill-rule:nonzero;stroke:none;stroke-width:0.02730655"
       d="m 12.915178,7.664435 h -0.54613 c 0,-0.45165 -0.367546,-0.819196 -0.819197,-0.819196 -0.45165,0 -0.819196,0.367546 -0.819196,0.819196 h -0.546131 c 0,-0.752842 0.612486,-1.365327 1.365327,-1.365327 0.752842,0 1.365327,0.612485 1.365327,1.365327" />
    <path
       inkscape:connector-curvature="0"
       id="path568"
       style="fill:#323131;fill-opacity:1;fill-rule:nonzero;stroke:none;stroke-width:0.02730655"
       d="M 5.8154771,7.664435 H 5.2693456 c 0,-0.45165 -0.367546,-0.819196 -0.8191958,-0.819196 -0.4516504,0 -0.8191965,0.367546 -0.8191965,0.819196 H 3.0848225 c 0,-0.752842 0.6124857,-1.365327 1.3653273,-1.365327 0.752841,0 1.3653273,0.612485 1.3653273,1.365327" />
    <path
       inkscape:connector-curvature="0"
       id="path604"
       style="fill:#ffffff;fill-opacity:1;fill-rule:nonzero;stroke:none;stroke-width:0.02730655"
       d="M 12.331364,9.848958 H 3.6686366 c 0.047786,0.382019 0.1469088,0.747381 0.2864454,1.092262 h 8.089837 c 0.139537,-0.344881 0.238659,-0.710243 0.286445,-1.092262" />
    <path
       inkscape:connector-curvature="0"
       id="path606"
       style="fill:#f04035;fill-opacity:1;fill-rule:nonzero;stroke:none;stroke-width:0.02730655"
       d="m 3.955082,10.94122 c 0.6477113,1.600437 2.2121032,2.730655 4.0449182,2.730655 1.8328156,0 3.3972078,-1.130218 4.0449188,-2.730655 H 3.955082" />
  </g>
</svg>
