<?xml version="1.0" encoding="UTF-8" standalone="no"?>
<!-- Created with Inkscape (http://www.inkscape.org/) -->

<svg
   xmlns:dc="http://purl.org/dc/elements/1.1/"
   xmlns:cc="http://creativecommons.org/ns#"
   xmlns:rdf="http://www.w3.org/1999/02/22-rdf-syntax-ns#"
   xmlns:svg="http://www.w3.org/2000/svg"
   xmlns="http://www.w3.org/2000/svg"
   xmlns:sodipodi="http://sodipodi.sourceforge.net/DTD/sodipodi-0.dtd"
   xmlns:inkscape="http://www.inkscape.org/namespaces/inkscape"
   width="16px"
   height="16px"
   viewBox="0 0 16 16"
   version="1.1"
   id="SVGRoot"
   inkscape:version="0.92.4 (5da689c313, 2019-01-14)"
   sodipodi:docname="ill.svg">
  <defs
     id="defs1955" />
  <sodipodi:namedview
     id="base"
     pagecolor="#ffffff"
     bordercolor="#666666"
     borderopacity="1.0"
     inkscape:pageopacity="0.0"
     inkscape:pageshadow="2"
     inkscape:zoom="16"
     inkscape:cx="10.251046"
     inkscape:cy="9.9217962"
     inkscape:document-units="px"
     inkscape:current-layer="layer1"
     showgrid="false"
     inkscape:window-width="1366"
     inkscape:window-height="703"
     inkscape:window-x="0"
     inkscape:window-y="0"
     inkscape:window-maximized="1"
     inkscape:grid-bbox="true" />
  <metadata
     id="metadata1958">
    <rdf:RDF>
      <cc:Work
         rdf:about="">
        <dc:format>image/svg+xml</dc:format>
        <dc:type
           rdf:resource="http://purl.org/dc/dcmitype/StillImage" />
        <dc:title></dc:title>
      </cc:Work>
    </rdf:RDF>
  </metadata>
  <g
     inkscape:label="Vrstva 1"
     inkscape:groupmode="layer"
     id="layer1">
    <path
       inkscape:connector-curvature="0"
       id="path136"
       style="fill:#fae131;fill-opacity:1;fill-rule:nonzero;stroke:none;stroke-width:0.02767857"
       d="m 15.6875,7.9374999 c 0,4.2802141 -3.469786,7.7500001 -7.75,7.7500001 -4.280215,0 -7.75,-3.469786 -7.75,-7.7500001 0,-4.2802149 3.469785,-7.7499999 7.75,-7.7499999 4.280214,0 7.75,3.469785 7.75,7.7499999" />
    <path
       inkscape:connector-curvature="0"
       id="path278"
       style="fill:#f8d532;fill-opacity:1;fill-rule:nonzero;stroke:none;stroke-width:0.02767857"
       d="m 12.8355,1.932357 c 1.090259,1.334938 1.744857,3.039937 1.744857,4.8979999 0,4.2802141 -3.469786,7.7500001 -7.75,7.7500001 -1.858063,0 -3.563062,-0.654598 -4.898,-1.744857 1.421018,1.740428 3.582991,2.852 6.005143,2.852 4.280214,0 7.75,-3.469786 7.75,-7.7500001 0,-2.4221518 -1.111572,-4.5841249 -2.852,-6.0051429" />
    <path
       inkscape:connector-curvature="0"
       id="path888"
       style="fill:#323131;fill-opacity:1;fill-rule:nonzero;stroke:none;stroke-width:0.02767857"
       d="M 13.349491,5.9709372 10.028063,4.310223 10.275509,3.814777 13.596937,5.4754909 13.349491,5.9709372" />
    <path
       inkscape:connector-curvature="0"
       id="path890"
       style="fill:#323131;fill-opacity:1;fill-rule:nonzero;stroke:none;stroke-width:0.02767857"
       d="M 2.525509,5.9709372 2.278062,5.4754909 5.599491,3.814777 5.846937,4.310223 2.525509,5.9709372" />
    <path
       inkscape:connector-curvature="0"
       id="path892"
       style="fill:#323131;fill-opacity:1;fill-rule:nonzero;stroke:none;stroke-width:0.02767857"
       d="m 12.642857,6.8303569 c 0,0.6114198 -0.495723,1.107143 -1.107143,1.107143 -0.611419,0 -1.107143,-0.4957232 -1.107143,-1.107143 0,-0.6114196 0.495724,-1.1071428 1.107143,-1.1071428 0.61142,0 1.107143,0.4957232 1.107143,1.1071428" />
    <path
       inkscape:connector-curvature="0"
       id="path894"
       style="fill:#323131;fill-opacity:1;fill-rule:nonzero;stroke:none;stroke-width:0.02767857"
       d="m 5.446428,6.8303569 c 0,0.6114198 -0.495723,1.107143 -1.107142,1.107143 -0.61142,0 -1.107143,-0.4957232 -1.107143,-1.107143 0,-0.6114196 0.495723,-1.1071428 1.107143,-1.1071428 0.611419,0 1.107142,0.4957232 1.107142,1.1071428" />
    <path
       inkscape:connector-curvature="0"
       id="path896"
       style="fill:#ffffff;fill-opacity:1;fill-rule:nonzero;stroke:none;stroke-width:0.02767857"
       d="m 11.24592,12.169277 2.814357,-2.8143574 c 0.324393,-0.324116 0.324393,-0.8500088 0,-1.1741251 -0.324116,-0.3243927 -0.850009,-0.3243927 -1.174125,0 l -2.814357,2.8143575 c -0.257965,0.01716 -0.5115,0.119848 -0.708572,0.316919 -0.432339,0.43234 -0.432339,1.133438 0,1.565777 0.43234,0.432339 1.133438,0.432339 1.565777,0 0.197071,-0.197071 0.299759,-0.450607 0.31692,-0.708571" />
    <path
       inkscape:connector-curvature="0"
       id="path898"
       style="fill:#f04035;fill-opacity:1;fill-rule:nonzero;stroke:none;stroke-width:0.02767857"
       d="m 10.678786,11.953661 2.990116,-2.9901164 c 0.108223,-0.1079464 0.108223,-0.2834285 0,-0.3913749 -0.107947,-0.1082234 -0.283429,-0.1082234 -0.391375,0 l -2.990116,2.9901163 c -0.18434,-0.04871 -0.388331,-0.0033 -0.532813,0.141437 -0.216169,0.21617 -0.216169,0.566581 0,0.78275 0.21617,0.21617 0.566581,0.21617 0.78275,0 0.144759,-0.144482 0.190152,-0.348473 0.141438,-0.532812" />
    <path
       inkscape:connector-curvature="0"
       id="path900"
       style="fill:#323131;fill-opacity:1;fill-rule:nonzero;stroke:none;stroke-width:0.02767857"
       d="m 12.690464,10.725009 -0.195964,-0.195688 0.195964,-0.195687 0.195688,0.195687 -0.195688,0.195688" />
    <path
       inkscape:connector-curvature="0"
       id="path902"
       style="fill:#323131;fill-opacity:1;fill-rule:nonzero;stroke:none;stroke-width:0.02767857"
       d="M 13.277527,10.137946 13.081839,9.9422588 13.277527,9.7465714 13.473214,9.9422588 13.277527,10.137946" />
    <path
       inkscape:connector-curvature="0"
       id="path904"
       style="fill:#323131;fill-opacity:1;fill-rule:nonzero;stroke:none;stroke-width:0.02767857"
       d="m 12.103125,11.312071 -0.195688,-0.195687 0.195688,-0.195687 0.195687,0.195687 -0.195687,0.195687" />
    <path
       inkscape:connector-curvature="0"
       id="path906"
       style="fill:#323131;fill-opacity:1;fill-rule:nonzero;stroke:none;stroke-width:0.02767857"
       d="m 11.516063,11.899411 -0.195688,-0.195688 0.195688,-0.195687 0.195687,0.195687 -0.195687,0.195688" />
    <path
       inkscape:connector-curvature="0"
       id="path1184"
       style="fill:#fae131;fill-opacity:1;fill-rule:nonzero;stroke:none;stroke-width:0.02767857"
       d="m 5.446428,13.75 c 0,-1.375902 1.11517,-2.491071 2.491072,-2.491071 1.375902,0 2.491071,1.115169 2.491071,2.491071" />
    <path
       inkscape:connector-curvature="0"
       id="path1186"
       style="fill:#323131;fill-opacity:1;fill-rule:nonzero;stroke:none;stroke-width:0.02767857"
       d="m 10.705357,13.75 h -0.553571 c 0,-1.220902 -0.993384,-2.214286 -2.214286,-2.214286 -1.220902,0 -2.214286,0.993384 -2.214286,2.214286 H 5.169643 c 0,-1.526196 1.24166,-2.767857 2.767857,-2.767857 1.526196,0 2.767857,1.241661 2.767857,2.767857" />
  </g>
</svg>
