<?xml version="1.0" encoding="UTF-8" standalone="no"?>
<!-- Created with Inkscape (http://www.inkscape.org/) -->

<svg
   xmlns:dc="http://purl.org/dc/elements/1.1/"
   xmlns:cc="http://creativecommons.org/ns#"
   xmlns:rdf="http://www.w3.org/1999/02/22-rdf-syntax-ns#"
   xmlns:svg="http://www.w3.org/2000/svg"
   xmlns="http://www.w3.org/2000/svg"
   xmlns:xlink="http://www.w3.org/1999/xlink"
   xmlns:sodipodi="http://sodipodi.sourceforge.net/DTD/sodipodi-0.dtd"
   xmlns:inkscape="http://www.inkscape.org/namespaces/inkscape"
   width="32px"
   height="32px"
   viewBox="0 0 32 32"
   version="1.1"
   id="SVGRoot"
   inkscape:version="0.92.3 (2405546, 2018-03-11)"
   sodipodi:docname="like.svg">
  <sodipodi:namedview
     id="base"
     pagecolor="#ffffff"
     bordercolor="#666666"
     borderopacity="1.0"
     inkscape:pageopacity="0.0"
     inkscape:pageshadow="2"
     inkscape:zoom="11.313709"
     inkscape:cx="12.793079"
     inkscape:cy="13.896391"
     inkscape:document-units="px"
     inkscape:current-layer="layer2"
     showgrid="false"
     inkscape:window-width="1366"
     inkscape:window-height="713"
     inkscape:window-x="0"
     inkscape:window-y="0"
     inkscape:window-maximized="1"
     inkscape:grid-bbox="true" />
  <defs
     id="defs815">
    <linearGradient
       inkscape:collect="always"
       id="linearGradient855">
      <stop
         style="stop-color:#ebaf12;stop-opacity:1;"
         offset="0"
         id="stop851" />
      <stop
         style="stop-color:#ff7f2a;stop-opacity:1"
         offset="1"
         id="stop853" />
    </linearGradient>
    <linearGradient
       inkscape:collect="always"
       xlink:href="#linearGradient855"
       id="linearGradient857"
       x1="0.95519337"
       y1="15.50466"
       x2="34.248295"
       y2="16.742096"
       gradientUnits="userSpaceOnUse" />
  </defs>
  <metadata
     id="metadata818">
    <rdf:RDF>
      <cc:Work
         rdf:about="">
        <dc:format>image/svg+xml</dc:format>
        <dc:type
           rdf:resource="http://purl.org/dc/dcmitype/StillImage" />
        <dc:title></dc:title>
      </cc:Work>
    </rdf:RDF>
  </metadata>
  <g
     id="layer1"
     inkscape:groupmode="layer"
     inkscape:label="Layer 1" />
  <g
     inkscape:groupmode="layer"
     id="layer2"
     inkscape:label="Layer 2">
    <path
       style="opacity:1;fill:url(#linearGradient857);fill-opacity:1;fill-rule:evenodd;stroke:#000000;stroke-width:0.62362206;stroke-linecap:butt;stroke-linejoin:miter;stroke-miterlimit:4;stroke-dasharray:none;stroke-opacity:1"
       d="m 1.2670044,15.984835 c 2.765389,0.215518 5.134222,-0.705487 8.125,0.9375 1.7707106,-0.179271 3.1224196,-2.752841 4.3124996,-6.25 0.478256,-1.1586868 1.933329,-2.3638887 3.25,-3.5625 0.488171,-0.7450572 0.96612,-1.5146459 1.25,-2.75 0.24363,-0.3056055 0.399437,-1.6650835 0.5625,-2.9375 -0.0095,-0.44419485 1.027008,-1.40025705 1.984375,-0.45312505 1.11084,0.59661105 1.854004,3.52128595 1.40625,5.29687505 -0.550953,1.9176108 -1.450989,2.5785234 -2.1875,3.828125 l -0.203125,1.015625 c 0.186187,0.542741 0.605483,0.894757 1.25,1.0625 2.310731,-0.218801 6.360261,-0.149714 7.546876,0.265625 0.803249,0.719126 1.586101,0.902153 1.703125,2.421875 0.100781,1.185082 -0.560519,1.82582 -1,2.625 0.755874,0.75218 0.926796,1.437019 1.125,2.125 -0.21261,1.050438 -0.835034,1.515428 -1.3125,2.1875 0.26013,0.61487 0.443965,1.243535 0.390625,2.171875 -0.642844,0.914079 -1.096544,1.669441 -1.453125,1.765625 0.153607,0.812668 0.642111,1.908709 0.3125,2.3125 -0.446917,0.866924 -1.33847,1.155823 -2.1875,1.5 -2.047809,0.46321 -4.067337,0.975911 -6.437501,0.875 -3.462149,-0.237868 -6.011212,-1.546839 -10.0937496,-1.75 -3.484751,1.427686 -5.598792,0.662234 -8.34375,0.90625 z"
       id="path2012"
       inkscape:connector-curvature="0"
       sodipodi:nodetypes="cccccccccccccccccccccccc" />
    <path
       style="fill:#080705;fill-rule:evenodd;stroke:none;stroke-width:1px;stroke-linecap:butt;stroke-linejoin:miter;stroke-opacity:1;fill-opacity:1"
       d="m 9.3920044,16.922335 0.21875,11.75 -1.8325798,0.676015 V 16.178486 Z"
       id="path814"
       inkscape:connector-curvature="0" />
  </g>
</svg>
