<?xml version="1.0" encoding="UTF-8" standalone="no"?>
<!-- Created with Inkscape (http://www.inkscape.org/) -->

<svg
   xmlns:dc="http://purl.org/dc/elements/1.1/"
   xmlns:cc="http://creativecommons.org/ns#"
   xmlns:rdf="http://www.w3.org/1999/02/22-rdf-syntax-ns#"
   xmlns:svg="http://www.w3.org/2000/svg"
   xmlns="http://www.w3.org/2000/svg"
   xmlns:sodipodi="http://sodipodi.sourceforge.net/DTD/sodipodi-0.dtd"
   xmlns:inkscape="http://www.inkscape.org/namespaces/inkscape"
   width="32"
   height="32"
   id="svg3344"
   version="1.1"
   inkscape:version="0.91 r13725"
   viewBox="0 0 32 32"
   sodipodi:docname="love.svg">
  <defs
     id="defs3346" />
  <sodipodi:namedview
     id="base"
     pagecolor="#ffffff"
     bordercolor="#666666"
     borderopacity="1.0"
     inkscape:pageopacity="0.0"
     inkscape:pageshadow="2"
     inkscape:zoom="15.836083"
     inkscape:cx="18.238411"
     inkscape:cy="15.817807"
     inkscape:current-layer="layer1"
     showgrid="true"
     inkscape:grid-bbox="true"
     inkscape:document-units="px"
     inkscape:window-width="1280"
     inkscape:window-height="961"
     inkscape:window-x="-8"
     inkscape:window-y="-8"
     inkscape:window-maximized="1" />
  <metadata
     id="metadata3349">
    <rdf:RDF>
      <cc:Work
         rdf:about="">
        <dc:format>image/svg+xml</dc:format>
        <dc:type
           rdf:resource="http://purl.org/dc/dcmitype/StillImage" />
        <dc:title></dc:title>
      </cc:Work>
    </rdf:RDF>
  </metadata>
  <g
     id="layer1"
     inkscape:label="Layer 1"
     inkscape:groupmode="layer">
    <path
       style="fill:#c00000;fill-opacity:1"
       id="path4170"
       sodipodi:type="arc"
       sodipodi:cx="4.786685"
       sodipodi:cy="-18.702703"
       sodipodi:rx="9.7644405"
       sodipodi:ry="16.728956"
       sodipodi:start="0.45195395"
       sodipodi:end="4.741321"
       d="M 13.570732,-11.396765 A 9.7644405,16.728956 0 0 1 1.7991566,-2.775995 9.7644405,16.728956 0 0 1 -4.8370991,-21.531947 9.7644405,16.728956 0 0 1 5.0691506,-35.424659"
       transform="matrix(0.94246275,-0.33431119,-0.34985898,-0.93680238,0,0)"
       sodipodi:open="true" />
    <path
       style="fill:#c00000;fill-opacity:1"
       id="path4170-6"
       sodipodi:type="arc"
       sodipodi:cx="-26.729202"
       sodipodi:cy="-1.0816023"
       sodipodi:rx="9.0536108"
       sodipodi:ry="16.261122"
       sodipodi:start="0.49798504"
       sodipodi:end="4.741321"
       d="M -18.775181,6.6856245 A 9.0536108,16.261122 0 0 1 -29.762408,14.239764 9.0536108,16.261122 0 0 1 -35.627853,-4.077303 9.0536108,16.261122 0 0 1 -26.4673,-17.335919"
       transform="matrix(-0.79656299,-0.60455554,0.5426286,-0.83997274,0,0)"
       sodipodi:open="true" />
    <path
       style="fill:#c00000;fill-opacity:1"
       id="path4187"
       sodipodi:type="arc"
       sodipodi:cx="19.933872"
       sodipodi:cy="9.6205254"
       sodipodi:rx="4.5913725"
       sodipodi:ry="4.5976062"
       sodipodi:start="0.49798432"
       sodipodi:end="4.7413265"
       sodipodi:open="true"
       d="M 23.967609,11.816598 A 4.5913725,4.5976062 0 0 1 18.395632,13.952427 4.5913725,4.5976062 0 0 1 15.421088,8.7735171 4.5913725,4.5976062 0 0 1 20.066717,5.024844" />
  </g>
</svg>
