<?xml version="1.0" encoding="UTF-8" standalone="no"?>
<!-- Created with Inkscape (http://www.inkscape.org/) -->

<svg
   xmlns:dc="http://purl.org/dc/elements/1.1/"
   xmlns:cc="http://creativecommons.org/ns#"
   xmlns:rdf="http://www.w3.org/1999/02/22-rdf-syntax-ns#"
   xmlns:svg="http://www.w3.org/2000/svg"
   xmlns="http://www.w3.org/2000/svg"
   xmlns:sodipodi="http://sodipodi.sourceforge.net/DTD/sodipodi-0.dtd"
   xmlns:inkscape="http://www.inkscape.org/namespaces/inkscape"
   width="16px"
   height="16px"
   viewBox="0 0 16 16"
   version="1.1"
   id="SVGRoot"
   inkscape:version="0.92.4 (5da689c313, 2019-01-14)"
   sodipodi:docname="loving.svg">
  <defs
     id="defs1955" />
  <sodipodi:namedview
     id="base"
     pagecolor="#ffffff"
     bordercolor="#666666"
     borderopacity="1.0"
     inkscape:pageopacity="0.0"
     inkscape:pageshadow="2"
     inkscape:zoom="16"
     inkscape:cx="10.251046"
     inkscape:cy="9.9217962"
     inkscape:document-units="px"
     inkscape:current-layer="layer1"
     showgrid="false"
     inkscape:window-width="1366"
     inkscape:window-height="703"
     inkscape:window-x="0"
     inkscape:window-y="0"
     inkscape:window-maximized="1"
     inkscape:grid-bbox="true" />
  <metadata
     id="metadata1958">
    <rdf:RDF>
      <cc:Work
         rdf:about="">
        <dc:format>image/svg+xml</dc:format>
        <dc:type
           rdf:resource="http://purl.org/dc/dcmitype/StillImage" />
        <dc:title></dc:title>
      </cc:Work>
    </rdf:RDF>
  </metadata>
  <g
     inkscape:label="Vrstva 1"
     inkscape:groupmode="layer"
     id="layer1">
    <path
       inkscape:connector-curvature="0"
       id="path90"
       style="fill:#fae131;fill-opacity:1;fill-rule:nonzero;stroke:none;stroke-width:0.02767857"
       d="M 15.75,8.0624997 C 15.75,12.342714 12.280214,15.8125 8,15.8125 3.719786,15.8125 0.25,12.342714 0.25,8.0624997 0.25,3.782286 3.719786,0.3125 8,0.3125 c 4.280214,0 7.75,3.469786 7.75,7.7499997" />
    <path
       inkscape:connector-curvature="0"
       id="path184"
       style="fill:#f8d532;fill-opacity:1;fill-rule:nonzero;stroke:none;stroke-width:0.02767857"
       d="m 12.898,2.057357 c 1.090259,1.334938 1.744857,3.039937 1.744857,4.8979999 0,4.2802141 -3.469786,7.7500001 -7.75,7.7500001 -1.858063,0 -3.563062,-0.654598 -4.898,-1.744857 1.421018,1.740428 3.582991,2.852 6.005143,2.852 4.280214,0 7.75,-3.469786 7.75,-7.7500003 0,-2.4221516 -1.111572,-4.5841247 -2.852,-6.0051427" />
    <path
       inkscape:connector-curvature="0"
       id="path522"
       style="fill:#f25593;fill-opacity:1;fill-rule:nonzero;stroke:none;stroke-width:0.02767857"
       d="m 2.803071,6.9882944 1.8755,1.9045627 1.8755,-1.9045627 c 0.451714,-0.4506072 0.451714,-1.1815982 0,-1.6324819 -0.451714,-0.4506075 -1.184089,-0.4506075 -1.635803,0 L 4.678571,5.5949553 4.438875,5.3558125 c -0.451715,-0.4506075 -1.184089,-0.4506075 -1.635804,0 -0.451714,0.4508837 -0.451714,1.1818747 0,1.6324819" />
    <path
       inkscape:connector-curvature="0"
       id="path524"
       style="fill:#f25593;fill-opacity:1;fill-rule:nonzero;stroke:none;stroke-width:0.02767857"
       d="m 13.196928,6.9882944 -1.875499,1.9045627 -1.8755,-1.9045627 c -0.451715,-0.4506072 -0.451715,-1.1815982 0,-1.6324819 0.451714,-0.4506075 1.184089,-0.4506075 1.635803,0 l 0.239697,0.2391428 0.239696,-0.2391428 c 0.451714,-0.4506075 1.184089,-0.4506075 1.635803,0 0.451715,0.4508837 0.451715,1.1818747 0,1.6324819" />
    <path
       inkscape:connector-curvature="0"
       id="path526"
       style="fill:#f03578;fill-opacity:1;fill-rule:nonzero;stroke:none;stroke-width:0.02767857"
       d="M 11.321429,5.5949553 11.081732,5.3558125 C 10.784741,5.059375 10.367348,4.961946 9.987045,5.0555 v 0 c 0.198178,0.04871 0.386669,0.146143 0.541116,0.3003125 l 0.515928,0.5156516 0.27734,-0.2765088" />
    <path
       inkscape:connector-curvature="0"
       id="path528"
       style="fill:#f03578;fill-opacity:1;fill-rule:nonzero;stroke:none;stroke-width:0.02767857"
       d="M 13.196928,5.3558125 C 12.899938,5.059375 12.482268,4.961946 12.102241,5.0555 c 0.197902,0.04871 0.386393,0.146143 0.541116,0.3003125 0.451714,0.4508837 0.451714,1.1818747 0,1.6324819 l -1.598714,1.6233485 0.276786,0.2812142 1.875499,-1.9045627 c 0.451715,-0.4506072 0.451715,-1.1815982 0,-1.6324819" />
    <path
       inkscape:connector-curvature="0"
       id="path530"
       style="fill:#f03578;fill-opacity:1;fill-rule:nonzero;stroke:none;stroke-width:0.02767857"
       d="M 4.678571,5.5949553 4.438875,5.3558125 C 4.141884,5.059375 3.724491,4.961946 3.344187,5.0555 v 0 c 0.198179,0.04871 0.38667,0.146143 0.541117,0.3003125 L 4.401232,5.8714641 4.678571,5.5949553" />
    <path
       inkscape:connector-curvature="0"
       id="path532"
       style="fill:#f03578;fill-opacity:1;fill-rule:nonzero;stroke:none;stroke-width:0.02767857"
       d="M 6.554071,5.3558125 C 6.25708,5.059375 5.839411,4.961946 5.459384,5.0555 5.657285,5.10421 5.845776,5.201643 6.0005,5.3558125 c 0.451714,0.4508837 0.451714,1.1818747 0,1.6324819 l -1.598714,1.6233485 0.276785,0.2812142 1.8755,-1.9045627 c 0.451714,-0.4506072 0.451714,-1.1815982 0,-1.6324819" />
    <path
       inkscape:connector-curvature="0"
       id="path534"
       style="fill:#323131;fill-opacity:1;fill-rule:nonzero;stroke:none;stroke-width:0.02767857"
       d="m 8,13.321429 c -1.373411,0 -2.491072,-1.117661 -2.491072,-2.491072 H 6.0625 c 0,1.068393 0.869107,1.9375 1.9375,1.9375 1.068393,0 1.9375,-0.869107 1.9375,-1.9375 h 0.553571 c 0,1.373411 -1.11766,2.491072 -2.491071,2.491072" />
  </g>
</svg>
