<?xml version="1.0" encoding="UTF-8" standalone="no"?>
<!-- Created with Inkscape (http://www.inkscape.org/) -->

<svg
   xmlns:dc="http://purl.org/dc/elements/1.1/"
   xmlns:cc="http://creativecommons.org/ns#"
   xmlns:rdf="http://www.w3.org/1999/02/22-rdf-syntax-ns#"
   xmlns:svg="http://www.w3.org/2000/svg"
   xmlns="http://www.w3.org/2000/svg"
   xmlns:sodipodi="http://sodipodi.sourceforge.net/DTD/sodipodi-0.dtd"
   xmlns:inkscape="http://www.inkscape.org/namespaces/inkscape"
   width="16px"
   height="16px"
   viewBox="0 0 16 16"
   version="1.1"
   id="SVGRoot"
   inkscape:version="0.92.5 (2060ec1f9f, 2020-04-08)"
   sodipodi:docname="pan.svg">
  <defs
     id="defs26" />
  <sodipodi:namedview
     id="base"
     pagecolor="#ffffff"
     bordercolor="#666666"
     borderopacity="1.0"
     inkscape:pageopacity="0.0"
     inkscape:pageshadow="2"
     inkscape:zoom="22.627417"
     inkscape:cx="5.6482034"
     inkscape:cy="2.7401962"
     inkscape:document-units="px"
     inkscape:current-layer="layer1"
     showgrid="false"
     inkscape:window-width="1920"
     inkscape:window-height="1015"
     inkscape:window-x="0"
     inkscape:window-y="0"
     inkscape:window-maximized="1"
     inkscape:grid-bbox="true" />
  <metadata
     id="metadata29">
    <rdf:RDF>
      <cc:Work
         rdf:about="">
        <dc:format>image/svg+xml</dc:format>
        <dc:type
           rdf:resource="http://purl.org/dc/dcmitype/StillImage" />
        <dc:title></dc:title>
      </cc:Work>
    </rdf:RDF>
  </metadata>
  <g
     inkscape:label="Vrstva 1"
     inkscape:groupmode="layer"
     id="layer1">
    <circle
       style="opacity:1;fill:#000000;fill-opacity:0.99375;stroke:#020000;stroke-width:0.40130368;stroke-miterlimit:4;stroke-dasharray:none;stroke-opacity:1"
       id="path4649"
       cx="6.1288486"
       cy="6.118156"
       r="5.47577" />
    <circle
       style="opacity:1;fill:#531c13;fill-opacity:1;stroke:#020000;stroke-width:0.45992008;stroke-miterlimit:4;stroke-dasharray:none;stroke-opacity:1"
       id="path4647"
       cx="6.1987009"
       cy="6.1530824"
       r="4.5733023" />
    <path
       style="fill:#000000;fill-opacity:0.99375;stroke:#000000;stroke-width:0.12695079;stroke-linecap:butt;stroke-linejoin:miter;stroke-miterlimit:4;stroke-dasharray:none;stroke-opacity:1"
       d="m 10.564088,8.3922297 c -0.08823,0.3306011 -0.169626,0.8040167 0.03812,1.1346177 0.67296,1.0716276 1.437602,1.8376436 2.221639,2.5390156 l 2.221638,1.170328 c 0.50924,0.472741 0.796949,0.982401 0.634753,1.567048 -0.02086,0.391375 -0.23989,0.644033 -0.634753,0.773606 -0.378566,0.143286 -0.886986,0.04542 -1.527376,-0.29754 L 12.169254,12.819633 C 11.581728,12.147907 11.025325,11.471732 10.185647,10.836027 9.7293003,10.625089 9.3027123,10.250478 8.7772871,10.41947 Z"
       id="path4651"
       inkscape:connector-curvature="0"
       sodipodi:nodetypes="ccccccccccc" />
    <path
       style="fill:none;fill-opacity:0.99375;stroke:#000000;stroke-width:0.63223439;stroke-linecap:butt;stroke-linejoin:miter;stroke-miterlimit:4;stroke-dasharray:none;stroke-opacity:1"
       d="M 1.3658889,3.3441484 C 1.0657294,3.4364453 0.90872999,3.1529455 0.87195577,2.5538555 1.1750758,1.9409402 1.6013622,1.3819103 2.427845,0.99796615 2.8764485,0.91165031 3.2628391,0.970497 3.5144979,1.3437193 Z"
       id="path4653"
       inkscape:connector-curvature="0"
       sodipodi:nodetypes="ccccc" />
    <path
       style="fill:#000000;fill-opacity:0.99375;stroke:#000000;stroke-width:0;stroke-linecap:butt;stroke-linejoin:miter;stroke-miterlimit:4;stroke-dasharray:none;stroke-opacity:1"
       d="m 9.1865218,1.4357565 c 0,0 0.5318599,-0.1407012 1.0519592,-0.1391423 0.313446,0.098677 0.443501,0.2677751 0.56873,0.4417381 -0.14214,0.8288479 -0.02853,1.1462107 0.05512,1.5234678 z"
       id="path4655"
       inkscape:connector-curvature="0"
       sodipodi:nodetypes="ccccc" />
    <path
       style="fill:#000000;fill-opacity:0.99375;stroke:#000000;stroke-width:0;stroke-linecap:butt;stroke-linejoin:miter;stroke-miterlimit:4;stroke-dasharray:none;stroke-opacity:1"
       d="m 3.1624615,10.910296 c 0,0 -0.5178339,0.136986 -1.0242173,0.135467 C 1.8330639,10.949696 1.7064397,10.785056 1.5845126,10.615681 1.7229038,9.8086914 1.6122973,9.4996964 1.5308484,9.1323882 Z"
       id="path4655-3"
       inkscape:connector-curvature="0"
       sodipodi:nodetypes="ccccc" />
  </g>
</svg>
