<?xml version="1.0" encoding="UTF-8" standalone="no"?>
<!-- Created with Inkscape (http://www.inkscape.org/) -->

<svg
   xmlns:dc="http://purl.org/dc/elements/1.1/"
   xmlns:cc="http://creativecommons.org/ns#"
   xmlns:rdf="http://www.w3.org/1999/02/22-rdf-syntax-ns#"
   xmlns:svg="http://www.w3.org/2000/svg"
   xmlns="http://www.w3.org/2000/svg"
   xmlns:sodipodi="http://sodipodi.sourceforge.net/DTD/sodipodi-0.dtd"
   xmlns:inkscape="http://www.inkscape.org/namespaces/inkscape"
   width="16px"
   height="16px"
   viewBox="0 0 16 16"
   version="1.1"
   id="SVGRoot"
   inkscape:version="0.92.4 (5da689c313, 2019-01-14)"
   sodipodi:docname="sad.svg">
  <defs
     id="defs1955" />
  <sodipodi:namedview
     id="base"
     pagecolor="#ffffff"
     bordercolor="#666666"
     borderopacity="1.0"
     inkscape:pageopacity="0.0"
     inkscape:pageshadow="2"
     inkscape:zoom="16"
     inkscape:cx="8.0726303"
     inkscape:cy="12.41061"
     inkscape:document-units="px"
     inkscape:current-layer="layer1"
     showgrid="false"
     inkscape:window-width="1366"
     inkscape:window-height="703"
     inkscape:window-x="0"
     inkscape:window-y="0"
     inkscape:window-maximized="1"
     inkscape:grid-bbox="true" />
  <metadata
     id="metadata1958">
    <rdf:RDF>
      <cc:Work
         rdf:about="">
        <dc:format>image/svg+xml</dc:format>
        <dc:type
           rdf:resource="http://purl.org/dc/dcmitype/StillImage" />
        <dc:title></dc:title>
      </cc:Work>
    </rdf:RDF>
  </metadata>
  <g
     inkscape:label="Vrstva 1"
     inkscape:groupmode="layer"
     id="layer1">
    <path
       inkscape:connector-curvature="0"
       id="path86"
       style="fill:#fae131;fill-opacity:1;fill-rule:nonzero;stroke:none;stroke-width:0.02779012"
       d="m 15.791668,8.0728542 c 0,4.2973148 -3.483777,7.7811458 -7.78125,7.7811458 -4.2974735,0 -7.78125,-3.483831 -7.78125,-7.7811458 0,-4.2975232 3.4837765,-7.7813542 7.78125,-7.7813542 4.297473,0 7.78125,3.483831 7.78125,7.7813542" />
    <path
       inkscape:connector-curvature="0"
       id="path178"
       style="fill:#f8d532;fill-opacity:1;fill-rule:nonzero;stroke:none;stroke-width:0.02779012"
       d="m 12.928168,2.0435236 c 1.094655,1.3401762 1.751893,3.0521819 1.751893,4.9175894 0,4.297524 -3.483777,7.781355 -7.78125,7.781355 -1.8655547,0 -3.5774297,-0.657375 -4.91775,-1.752025 1.4267476,1.747439 3.5974382,2.863557 6.029357,2.863557 4.297473,0 7.78125,-3.483831 7.78125,-7.7811458 0,-2.4319076 -1.116054,-4.6026582 -2.8635,-6.0293306" />
    <path
       inkscape:connector-curvature="0"
       id="path506"
       style="fill:#323131;fill-opacity:1;fill-rule:nonzero;stroke:none;stroke-width:0.02779012"
       d="m 12.734748,6.961113 c 0,0.6140213 -0.497721,1.1117412 -1.111607,1.1117412 -0.613885,0 -1.111607,-0.4977199 -1.111607,-1.1117412 0,-0.6138126 0.497722,-1.1115325 1.111607,-1.1115325 0.613886,0 1.111607,0.4977199 1.111607,1.1115325" />
    <path
       inkscape:connector-curvature="0"
       id="path508"
       style="fill:#323131;fill-opacity:1;fill-rule:nonzero;stroke:none;stroke-width:0.02779012"
       d="m 5.5093015,6.961113 c 0,0.6140213 -0.4977218,1.1117412 -1.111607,1.1117412 -0.6138852,0 -1.111607,-0.4977199 -1.111607,-1.1117412 0,-0.6138126 0.4977218,-1.1115325 1.111607,-1.1115325 0.6138852,0 1.111607,0.4977199 1.111607,1.1115325" />
    <path
       inkscape:connector-curvature="0"
       id="path510"
       style="fill:#323131;fill-opacity:1;fill-rule:nonzero;stroke:none;stroke-width:0.02779012"
       d="m 11.067338,12.519194 c -2.478375,-1.145032 -4.4682203,-0.843917 -6.1138395,0 v -0.555872 c 2.141325,-1.343921 4.1367797,-0.791527 6.1138395,0 v 0.555872"
       sodipodi:nodetypes="ccccc" />
    <path
       inkscape:connector-curvature="0"
       id="path610"
       style="fill:#ffffff;fill-opacity:1;fill-rule:nonzero;stroke:none;stroke-width:0.02779012"
       d="m 12.584959,10.018714 h 8.34e-4 L 11.623141,8.6291417 10.660489,10.018714 h 8.35e-4 c -0.09477,0.163405 -0.14979,0.352655 -0.14979,0.555246 0,0.613812 0.497722,1.111532 1.111607,1.111532 0.613886,0 1.111607,-0.49772 1.111607,-1.111532 0,-0.202591 -0.05502,-0.391841 -0.149789,-0.555246" />
  </g>
</svg>
