<?xml version="1.0" encoding="UTF-8" standalone="no"?>
<!-- Created with Inkscape (http://www.inkscape.org/) -->

<svg
   xmlns:dc="http://purl.org/dc/elements/1.1/"
   xmlns:cc="http://creativecommons.org/ns#"
   xmlns:rdf="http://www.w3.org/1999/02/22-rdf-syntax-ns#"
   xmlns:svg="http://www.w3.org/2000/svg"
   xmlns="http://www.w3.org/2000/svg"
   xmlns:sodipodi="http://sodipodi.sourceforge.net/DTD/sodipodi-0.dtd"
   xmlns:inkscape="http://www.inkscape.org/namespaces/inkscape"
   width="16px"
   height="16px"
   viewBox="0 0 16 16"
   version="1.1"
   id="SVGRoot"
   inkscape:version="0.92.4 (5da689c313, 2019-01-14)"
   sodipodi:docname="sick.svg">
  <defs
     id="defs1955" />
  <sodipodi:namedview
     id="base"
     pagecolor="#ffffff"
     bordercolor="#666666"
     borderopacity="1.0"
     inkscape:pageopacity="0.0"
     inkscape:pageshadow="2"
     inkscape:zoom="16"
     inkscape:cx="10.251046"
     inkscape:cy="9.9217962"
     inkscape:document-units="px"
     inkscape:current-layer="layer1"
     showgrid="false"
     inkscape:window-width="1366"
     inkscape:window-height="703"
     inkscape:window-x="0"
     inkscape:window-y="0"
     inkscape:window-maximized="1"
     inkscape:grid-bbox="true" />
  <metadata
     id="metadata1958">
    <rdf:RDF>
      <cc:Work
         rdf:about="">
        <dc:format>image/svg+xml</dc:format>
        <dc:type
           rdf:resource="http://purl.org/dc/dcmitype/StillImage" />
        <dc:title></dc:title>
      </cc:Work>
    </rdf:RDF>
  </metadata>
  <g
     inkscape:label="Vrstva 1"
     inkscape:groupmode="layer"
     id="layer1">
    <path
       inkscape:connector-curvature="0"
       id="path170"
       style="fill:#a7c84d;fill-opacity:1;fill-rule:nonzero;stroke:none;stroke-width:0.02767857"
       d="m 15.8125,7.9374999 c 0,4.2802141 -3.469786,7.7500001 -7.75,7.7500001 -4.280215,0 -7.75,-3.469786 -7.75,-7.7500001 0,-4.2802149 3.469785,-7.7499999 7.75,-7.7499999 4.280214,0 7.75,3.469785 7.75,7.7499999" />
    <path
       inkscape:connector-curvature="0"
       id="path256"
       style="fill:#91ad44;fill-opacity:1;fill-rule:nonzero;stroke:none;stroke-width:0.02767857"
       d="m 12.9605,1.932357 c 1.090259,1.334938 1.744857,3.039937 1.744857,4.8979999 0,4.2802141 -3.469786,7.7500001 -7.75,7.7500001 -1.858063,0 -3.563062,-0.654598 -4.898,-1.744857 1.421018,1.740428 3.582991,2.852 6.005143,2.852 4.280214,0 7.75,-3.469786 7.75,-7.7500001 0,-2.4221518 -1.111572,-4.5841249 -2.852,-6.0051429" />
    <path
       inkscape:connector-curvature="0"
       id="path1130"
       style="fill:#f04035;fill-opacity:1;fill-rule:nonzero;stroke:none;stroke-width:0.02767857"
       d="M 10.276786,12.366071 H 9.446429 v 1.799108 c 0,0.229178 0.186,0.415178 0.415178,0.415178 v 0 c 0.229179,0 0.415179,-0.186 0.415179,-0.415178 v -1.799108" />
    <path
       inkscape:connector-curvature="0"
       id="path1132"
       style="fill:#999e30;fill-opacity:1;fill-rule:nonzero;stroke:none;stroke-width:0.02767857"
       d="m 9.723214,6.8303569 v 0.8303573 c 0,1.0700537 0.867447,1.9375 1.9375,1.9375 1.070054,0 1.9375,-0.8674463 1.9375,-1.9375 V 6.8303569 h -3.875" />
    <path
       inkscape:connector-curvature="0"
       id="path1134"
       style="fill:#999e30;fill-opacity:1;fill-rule:nonzero;stroke:none;stroke-width:0.02767857"
       d="m 2.526785,6.8303569 v 0.8303573 c 0,1.0700537 0.867447,1.9375 1.937501,1.9375 1.070053,0 1.9375,-0.8674463 1.9375,-1.9375 V 6.8303569 H 2.526785" />
    <path
       inkscape:connector-curvature="0"
       id="path1136"
       style="fill:#f04035;fill-opacity:1;fill-rule:nonzero;stroke:none;stroke-width:0.02767857"
       d="m 13.598214,6.8303569 c 0,1.0700538 -0.867446,1.9375002 -1.9375,1.9375002 -1.070053,0 -1.9375,-0.8674464 -1.9375,-1.9375002 0,-1.0700535 0.867447,-1.9374999 1.9375,-1.9374999 1.070054,0 1.9375,0.8674464 1.9375,1.9374999" />
    <path
       inkscape:connector-curvature="0"
       id="path1138"
       style="fill:#f04035;fill-opacity:1;fill-rule:nonzero;stroke:none;stroke-width:0.02767857"
       d="m 6.401786,6.8303569 c 0,1.0700538 -0.867447,1.9375002 -1.9375,1.9375002 -1.070054,0 -1.937501,-0.8674464 -1.937501,-1.9375002 0,-1.0700535 0.867447,-1.9374999 1.937501,-1.9374999 1.070053,0 1.9375,0.8674464 1.9375,1.9374999" />
    <path
       inkscape:connector-curvature="0"
       id="path1140"
       style="fill:#323131;fill-opacity:1;fill-rule:nonzero;stroke:none;stroke-width:0.02767857"
       d="m 12.767857,6.2767856 c 0,0.6114196 -0.495723,1.107143 -1.107143,1.107143 -0.611419,0 -1.107143,-0.4957234 -1.107143,-1.107143 0,-0.6114198 0.495724,-1.1071426 1.107143,-1.1071426 0.61142,0 1.107143,0.4957228 1.107143,1.1071426" />
    <path
       inkscape:connector-curvature="0"
       id="path1142"
       style="fill:#323131;fill-opacity:1;fill-rule:nonzero;stroke:none;stroke-width:0.02767857"
       d="m 5.571428,6.8303569 c 0,0.6114198 -0.495723,1.107143 -1.107142,1.107143 -0.61142,0 -1.107143,-0.4957232 -1.107143,-1.107143 0,-0.6114196 0.495723,-1.1071428 1.107143,-1.1071428 0.611419,0 1.107142,0.4957232 1.107142,1.1071428" />
    <path
       inkscape:connector-curvature="0"
       id="path1144"
       style="fill:#ffffff;fill-opacity:1;fill-rule:nonzero;stroke:none;stroke-width:0.02767857"
       d="M 6.955357,13.473214 H 5.848214 v -1.107143 h 1.107143 v 1.107143" />
    <path
       inkscape:connector-curvature="0"
       id="path1146"
       style="fill:#ffffff;fill-opacity:1;fill-rule:nonzero;stroke:none;stroke-width:0.02767857"
       d="M 8.616071,13.473214 H 7.508929 v -1.107143 h 1.107142 v 1.107143" />
    <path
       inkscape:connector-curvature="0"
       id="path1148"
       style="fill:#323131;fill-opacity:1;fill-rule:nonzero;stroke:none;stroke-width:0.02767857"
       d="M 10.553571,12.642857 H 5.571428 v -0.553571 h 4.982143 v 0.553571" />
  </g>
</svg>
