<?xml version="1.0" encoding="UTF-8" standalone="no"?>
<!-- Created with Inkscape (http://www.inkscape.org/) -->

<svg
   xmlns:dc="http://purl.org/dc/elements/1.1/"
   xmlns:cc="http://creativecommons.org/ns#"
   xmlns:rdf="http://www.w3.org/1999/02/22-rdf-syntax-ns#"
   xmlns:svg="http://www.w3.org/2000/svg"
   xmlns="http://www.w3.org/2000/svg"
   xmlns:sodipodi="http://sodipodi.sourceforge.net/DTD/sodipodi-0.dtd"
   xmlns:inkscape="http://www.inkscape.org/namespaces/inkscape"
   width="16px"
   height="16px"
   viewBox="0 0 16 16"
   version="1.1"
   id="SVGRoot"
   inkscape:version="0.92.4 (5da689c313, 2019-01-14)"
   sodipodi:docname="smile_crying.svg">
  <defs
     id="defs1955" />
  <sodipodi:namedview
     id="base"
     pagecolor="#ffffff"
     bordercolor="#666666"
     borderopacity="1.0"
     inkscape:pageopacity="0.0"
     inkscape:pageshadow="2"
     inkscape:zoom="16"
     inkscape:cx="10.251046"
     inkscape:cy="9.9217962"
     inkscape:document-units="px"
     inkscape:current-layer="layer1"
     showgrid="false"
     inkscape:window-width="1366"
     inkscape:window-height="703"
     inkscape:window-x="0"
     inkscape:window-y="0"
     inkscape:window-maximized="1"
     inkscape:grid-bbox="true" />
  <metadata
     id="metadata1958">
    <rdf:RDF>
      <cc:Work
         rdf:about="">
        <dc:format>image/svg+xml</dc:format>
        <dc:type
           rdf:resource="http://purl.org/dc/dcmitype/StillImage" />
        <dc:title></dc:title>
      </cc:Work>
    </rdf:RDF>
  </metadata>
  <g
     inkscape:label="Vrstva 1"
     inkscape:groupmode="layer"
     id="layer1">
    <path
       inkscape:connector-curvature="0"
       id="path108"
       style="fill:#fae131;fill-opacity:1;fill-rule:nonzero;stroke:none;stroke-width:0.02767857"
       d="M 15.75,7.9999997 C 15.75,12.280214 12.280214,15.75 8,15.75 3.719786,15.75 0.25,12.280214 0.25,7.9999997 0.25,3.719786 3.719786,0.25 8,0.25 c 4.280214,0 7.75,3.469786 7.75,7.7499997" />
    <path
       inkscape:connector-curvature="0"
       id="path206"
       style="fill:#f8d532;fill-opacity:1;fill-rule:nonzero;stroke:none;stroke-width:0.02767857"
       d="m 12.898,1.994857 c 1.090259,1.334938 1.744857,3.039937 1.744857,4.8979999 0,4.2802141 -3.469786,7.7500001 -7.75,7.7500001 -1.858063,0 -3.563062,-0.654598 -4.898,-1.744857 C 3.415875,14.638428 5.577848,15.75 8,15.75 c 4.280214,0 7.75,-3.469786 7.75,-7.7500003 0,-2.4221516 -1.111572,-4.5841247 -2.852,-6.0051427" />
    <path
       inkscape:connector-curvature="0"
       id="path620"
       style="fill:#323131;fill-opacity:1;fill-rule:nonzero;stroke:none;stroke-width:0.02767857"
       d="M 12.581634,8.247723 9.872179,6.8928569 12.581634,5.5379909 12.82908,6.0334372 11.109964,6.8928569 12.82908,7.7522765 12.581634,8.247723" />
    <path
       inkscape:connector-curvature="0"
       id="path622"
       style="fill:#323131;fill-opacity:1;fill-rule:nonzero;stroke:none;stroke-width:0.02767857"
       d="M 3.418366,8.247723 3.17092,7.7522765 4.890035,6.8928569 3.17092,6.0334372 3.418366,5.5379909 6.127821,6.8928569 3.418366,8.247723" />
    <path
       inkscape:connector-curvature="0"
       id="path624"
       style="fill:#ffffff;fill-opacity:1;fill-rule:nonzero;stroke:none;stroke-width:0.02767857"
       d="m 12.924018,8.5535714 0.112928,1.8810356 c 0.04207,0.699161 0.80517,1.109634 1.411608,0.7595 v 0 c 0.606437,-0.350134 0.632455,-1.2164731 0.04816,-1.6023124 L 12.924018,8.5535714" />
    <path
       inkscape:connector-curvature="0"
       id="path626"
       style="fill:#ffffff;fill-opacity:1;fill-rule:nonzero;stroke:none;stroke-width:0.02767857"
       d="M 3.075982,8.5535714 2.963054,10.434607 c -0.04207,0.699161 -0.80517,1.109634 -1.411608,0.7595 v 0 C 0.945009,10.843973 0.918991,9.9776339 1.503286,9.5917946 L 3.075982,8.5535714" />
    <path
       inkscape:connector-curvature="0"
       id="path628"
       style="fill:#f04035;fill-opacity:1;fill-rule:nonzero;stroke:none;stroke-width:0.02767857"
       d="M 4.125,9.9375001 C 4.125,12.077607 5.859893,13.8125 8,13.8125 c 2.140107,0 3.875,-1.734893 3.875,-3.8749999 h -7.75" />
  </g>
</svg>
