<?xml version="1.0" encoding="UTF-8" standalone="no"?>
<!-- Created with Inkscape (http://www.inkscape.org/) -->

<svg
   xmlns:dc="http://purl.org/dc/elements/1.1/"
   xmlns:cc="http://creativecommons.org/ns#"
   xmlns:rdf="http://www.w3.org/1999/02/22-rdf-syntax-ns#"
   xmlns:svg="http://www.w3.org/2000/svg"
   xmlns="http://www.w3.org/2000/svg"
   xmlns:sodipodi="http://sodipodi.sourceforge.net/DTD/sodipodi-0.dtd"
   xmlns:inkscape="http://www.inkscape.org/namespaces/inkscape"
   width="16px"
   height="16px"
   viewBox="0 0 16 16"
   version="1.1"
   id="SVGRoot"
   inkscape:version="0.92.4 (5da689c313, 2019-01-14)"
   sodipodi:docname="snd_heart.svg">
  <defs
     id="defs1955" />
  <sodipodi:namedview
     id="base"
     pagecolor="#ffffff"
     bordercolor="#666666"
     borderopacity="1.0"
     inkscape:pageopacity="0.0"
     inkscape:pageshadow="2"
     inkscape:zoom="16"
     inkscape:cx="10.251046"
     inkscape:cy="9.9217962"
     inkscape:document-units="px"
     inkscape:current-layer="layer1"
     showgrid="false"
     inkscape:window-width="1366"
     inkscape:window-height="703"
     inkscape:window-x="0"
     inkscape:window-y="0"
     inkscape:window-maximized="1"
     inkscape:grid-bbox="true" />
  <metadata
     id="metadata1958">
    <rdf:RDF>
      <cc:Work
         rdf:about="">
        <dc:format>image/svg+xml</dc:format>
        <dc:type
           rdf:resource="http://purl.org/dc/dcmitype/StillImage" />
        <dc:title></dc:title>
      </cc:Work>
    </rdf:RDF>
  </metadata>
  <g
     inkscape:label="Vrstva 1"
     inkscape:groupmode="layer"
     id="layer1">
    <path
       inkscape:connector-curvature="0"
       id="path100"
       style="fill:#fae131;fill-opacity:1;fill-rule:nonzero;stroke:none;stroke-width:0.02767857"
       d="m 15.875,8.0624997 c 0,4.2802143 -3.469786,7.7500003 -7.75,7.7500003 -4.280214,0 -7.75,-3.469786 -7.75,-7.7500003 C 0.375,3.782286 3.844786,0.3125 8.125,0.3125 c 4.280214,0 7.75,3.469786 7.75,7.7499997" />
    <path
       inkscape:connector-curvature="0"
       id="path192"
       style="fill:#f8d532;fill-opacity:1;fill-rule:nonzero;stroke:none;stroke-width:0.02767857"
       d="m 13.023,2.057357 c 1.090259,1.334938 1.744857,3.039937 1.744857,4.8979999 0,4.2802141 -3.469786,7.7500001 -7.75,7.7500001 -1.858062,0 -3.563062,-0.654598 -4.898,-1.744857 1.421018,1.740428 3.582991,2.852 6.005143,2.852 4.280214,0 7.75,-3.469786 7.75,-7.7500003 0,-2.4221516 -1.111572,-4.5841247 -2.852,-6.0051427" />
    <path
       inkscape:connector-curvature="0"
       id="path570"
       style="fill:#323131;fill-opacity:1;fill-rule:nonzero;stroke:none;stroke-width:0.02767857"
       d="m 13.107143,7.785714 h -0.553572 c 0,-0.4578033 -0.372553,-0.8303571 -0.830357,-0.8303571 -0.457803,0 -0.830357,0.3725538 -0.830357,0.8303571 h -0.553571 c 0,-0.7630982 0.62083,-1.3839284 1.383928,-1.3839284 0.763098,0 1.383929,0.6208302 1.383929,1.3839284" />
    <path
       inkscape:connector-curvature="0"
       id="path572"
       style="fill:#323131;fill-opacity:1;fill-rule:nonzero;stroke:none;stroke-width:0.02767857"
       d="M 5.910714,7.785714 H 5.357143 c 0,-0.4578033 -0.372554,-0.8303571 -0.830357,-0.8303571 -0.457804,0 -0.830357,0.3725538 -0.830357,0.8303571 H 3.142857 c 0,-0.7630982 0.620831,-1.3839284 1.383929,-1.3839284 0.763098,0 1.383928,0.6208302 1.383928,1.3839284" />
    <path
       inkscape:connector-curvature="0"
       id="path574"
       style="fill:#323131;fill-opacity:1;fill-rule:nonzero;stroke:none;stroke-width:0.02767857"
       d="m 8.125,14.428571 c -0.763098,0 -1.383929,-0.49683 -1.383929,-1.107142 0,-0.610313 0.620831,-1.107143 1.383929,-1.107143 v 0.553571 c -0.450054,0 -0.830357,0.253536 -0.830357,0.553572 0,0.300035 0.380303,0.553571 0.830357,0.553571 v 0.553571" />
    <path
       inkscape:connector-curvature="0"
       id="path576"
       style="fill:#323131;fill-opacity:1;fill-rule:nonzero;stroke:none;stroke-width:0.02767857"
       d="m 8.125,12.767857 c -0.763098,0 -1.383929,-0.49683 -1.383929,-1.107143 0,-0.610312 0.620831,-1.107143 1.383929,-1.107143 v 0.553572 c -0.450054,0 -0.830357,0.253536 -0.830357,0.553571 0,0.300036 0.380303,0.553572 0.830357,0.553572 v 0.553571" />
    <path
       inkscape:connector-curvature="0"
       id="path1254"
       style="fill:#f25593;fill-opacity:1;fill-rule:nonzero;stroke:none;stroke-width:0.02767857"
       d="m 4.464786,13.354366 -1.8755,1.904562 -1.8755,-1.904562 c -0.451715,-0.450607 -0.451715,-1.181598 0,-1.632482 0.451714,-0.450607 1.184089,-0.450607 1.635803,0 l 0.239697,0.239143 0.239696,-0.239143 c 0.451714,-0.450607 1.184089,-0.450607 1.635804,0 0.451714,0.450884 0.451714,1.181875 0,1.632482" />
    <path
       inkscape:connector-curvature="0"
       id="path1256"
       style="fill:#f03578;fill-opacity:1;fill-rule:nonzero;stroke:none;stroke-width:0.02767857"
       d="M 2.589286,11.961027 2.349589,11.721884 C 2.052598,11.425446 1.635205,11.328018 1.254902,11.421571 v 0 c 0.198178,0.04871 0.386669,0.146143 0.541116,0.300313 l 0.515928,0.515652 0.27734,-0.276509" />
    <path
       inkscape:connector-curvature="0"
       id="path1258"
       style="fill:#f03578;fill-opacity:1;fill-rule:nonzero;stroke:none;stroke-width:0.02767857"
       d="M 4.464786,11.721884 C 4.167795,11.425446 3.750125,11.328018 3.370098,11.421571 c 0.197902,0.04871 0.386393,0.146143 0.541116,0.300313 0.451715,0.450884 0.451715,1.181875 0,1.632482 l -1.598714,1.623348 0.276786,0.281214 1.8755,-1.904562 c 0.451714,-0.450607 0.451714,-1.181598 0,-1.632482" />
  </g>
</svg>
