<?xml version="1.0" encoding="UTF-8" standalone="no"?>
<!-- Created with Inkscape (http://www.inkscape.org/) -->

<svg
   xmlns:dc="http://purl.org/dc/elements/1.1/"
   xmlns:cc="http://creativecommons.org/ns#"
   xmlns:rdf="http://www.w3.org/1999/02/22-rdf-syntax-ns#"
   xmlns:svg="http://www.w3.org/2000/svg"
   xmlns="http://www.w3.org/2000/svg"
   xmlns:sodipodi="http://sodipodi.sourceforge.net/DTD/sodipodi-0.dtd"
   xmlns:inkscape="http://www.inkscape.org/namespaces/inkscape"
   width="16px"
   height="16px"
   viewBox="0 0 16 16"
   version="1.1"
   id="SVGRoot"
   inkscape:version="0.92.4 (5da689c313, 2019-01-14)"
   sodipodi:docname="tong.svg">
  <defs
     id="defs1955" />
  <sodipodi:namedview
     id="base"
     pagecolor="#ffffff"
     bordercolor="#666666"
     borderopacity="1.0"
     inkscape:pageopacity="0.0"
     inkscape:pageshadow="2"
     inkscape:zoom="16"
     inkscape:cx="10.251046"
     inkscape:cy="9.9217962"
     inkscape:document-units="px"
     inkscape:current-layer="layer1"
     showgrid="false"
     inkscape:window-width="1366"
     inkscape:window-height="703"
     inkscape:window-x="0"
     inkscape:window-y="0"
     inkscape:window-maximized="1"
     inkscape:grid-bbox="true" />
  <metadata
     id="metadata1958">
    <rdf:RDF>
      <cc:Work
         rdf:about="">
        <dc:format>image/svg+xml</dc:format>
        <dc:type
           rdf:resource="http://purl.org/dc/dcmitype/StillImage" />
        <dc:title></dc:title>
      </cc:Work>
    </rdf:RDF>
  </metadata>
  <g
     inkscape:label="Vrstva 1"
     inkscape:groupmode="layer"
     id="layer1">
    <path
       inkscape:connector-curvature="0"
       id="path96"
       style="fill:#fae131;fill-opacity:1;fill-rule:nonzero;stroke:none;stroke-width:0.02767857"
       d="m 15.625,7.9374999 c 0,4.2802141 -3.469786,7.7500001 -7.75,7.7500001 -4.280215,0 -7.75,-3.469786 -7.75,-7.7500001 C 0.125,3.657285 3.594785,0.1875 7.875,0.1875 c 4.280214,0 7.75,3.469785 7.75,7.7499999" />
    <path
       inkscape:connector-curvature="0"
       id="path190"
       style="fill:#f8d532;fill-opacity:1;fill-rule:nonzero;stroke:none;stroke-width:0.02767857"
       d="m 12.773,1.932357 c 1.090259,1.334938 1.744857,3.039937 1.744857,4.8979999 0,4.2802141 -3.469786,7.7500001 -7.75,7.7500001 -1.858063,0 -3.563062,-0.654598 -4.898,-1.744857 1.421018,1.740428 3.582991,2.852 6.005143,2.852 4.280214,0 7.75,-3.469786 7.75,-7.7500001 0,-2.4221518 -1.111572,-4.5841249 -2.852,-6.0051429" />
    <path
       inkscape:connector-curvature="0"
       id="path556"
       style="fill:#323131;fill-opacity:1;fill-rule:nonzero;stroke:none;stroke-width:0.02767857"
       d="M 12.456634,8.1852233 9.747179,6.8303569 12.456634,5.4754909 12.70408,5.9709372 10.984964,6.8303569 12.70408,7.6897767 12.456634,8.1852233" />
    <path
       inkscape:connector-curvature="0"
       id="path558"
       style="fill:#323131;fill-opacity:1;fill-rule:nonzero;stroke:none;stroke-width:0.02767857"
       d="M 3.293366,8.1852233 3.045919,7.6897767 4.765035,6.8303569 3.045919,5.9709372 3.293366,5.4754909 6.002821,6.8303569 3.293366,8.1852233" />
    <path
       inkscape:connector-curvature="0"
       id="path560"
       style="fill:#f04035;fill-opacity:1;fill-rule:nonzero;stroke:none;stroke-width:0.02767857"
       d="m 7.875,14.857143 v 0 c -1.222839,0 -2.214286,-0.929446 -2.214286,-2.075893 v -2.075893 h 4.428572 v 2.075893 c 0,1.146447 -0.991447,2.075893 -2.214286,2.075893" />
    <path
       inkscape:connector-curvature="0"
       id="path562"
       style="fill:#323131;fill-opacity:1;fill-rule:nonzero;stroke:none;stroke-width:0.02767857"
       d="M 11.196429,10.982143 H 4.553571 v -0.553572 h 6.642858 v 0.553572" />
    <path
       inkscape:connector-curvature="0"
       id="path564"
       style="fill:#323131;fill-opacity:1;fill-rule:nonzero;stroke:none;stroke-width:0.02767857"
       d="M 8.151786,14.026786 H 7.598214 v -3.321429 h 0.553572 v 3.321429" />
  </g>
</svg>
